<?xml version="1.0" encoding="UTF-8" standalone="no"?>
<!-- Created with Inkscape (http://www.inkscape.org/) -->

<svg
   xmlns:dc="http://purl.org/dc/elements/1.1/"
   xmlns:cc="http://creativecommons.org/ns#"
   xmlns:rdf="http://www.w3.org/1999/02/22-rdf-syntax-ns#"
   xmlns:svg="http://www.w3.org/2000/svg"
   xmlns="http://www.w3.org/2000/svg"
   xmlns:sodipodi="http://sodipodi.sourceforge.net/DTD/sodipodi-0.dtd"
   xmlns:inkscape="http://www.inkscape.org/namespaces/inkscape"
   id="svg2"
   version="1.1"
   inkscape:version="0.91 r13725"
   xml:space="preserve"
   width="258.66125"
   height="49.605751"
   viewBox="0 0 258.66125 49.605751"
   sodipodi:docname="logo.svg"><metadata
     id="metadata8"><rdf:RDF><cc:Work
         rdf:about=""><dc:format>image/svg+xml</dc:format><dc:type
           rdf:resource="http://purl.org/dc/dcmitype/StillImage" /><dc:title></dc:title></cc:Work></rdf:RDF></metadata><defs
     id="defs6"><clipPath
       clipPathUnits="userSpaceOnUse"
       id="clipPath30"><path
         d="m 0,39.685 206.929,0 L 206.929,0 0,0 0,39.685 Z"
         id="path32"
         inkscape:connector-curvature="0" /></clipPath></defs><sodipodi:namedview
     pagecolor="#ffffff"
     bordercolor="#666666"
     borderopacity="1"
     objecttolerance="10"
     gridtolerance="10"
     guidetolerance="10"
     inkscape:pageopacity="0"
     inkscape:pageshadow="2"
     inkscape:window-width="1353"
     inkscape:window-height="725"
     id="namedview4"
     showgrid="false"
     inkscape:zoom="1.793852"
     inkscape:cx="108.98335"
     inkscape:cy="24.802876"
     inkscape:window-x="20"
     inkscape:window-y="43"
     inkscape:window-maximized="0"
     inkscape:current-layer="g10" /><g
     id="g10"
     inkscape:groupmode="layer"
     inkscape:label="wortmarke_engl_weissAufSchwarz"
     transform="matrix(1.25,0,0,-1.25,0,49.60575)"><path
       d="m 0,0 206.929,0 0,39.685 L 0,39.685 0,0 Z"
       style="fill:#100f0d;fill-opacity:1;fill-rule:nonzero;stroke:none"
       id="path12"
       inkscape:connector-curvature="0" /><g
       id="g14"
       transform="translate(58.5,39.3948)"><path
         d="m 0,0 -2.335,-7.813 -0.031,0 -2.239,7.813 -3.176,0 0,-0.365 1.19,0 0,-9.878 -1.19,0 0,-0.365 2.858,0 0,0.365 -1.192,0 0,9.687 0.033,0 2.969,-10.052 0.413,0 3.082,10.052 0.031,0 0,-9.687 -1.223,0 0,-0.365 3.97,0 0,0.365 -1.207,0 0,9.878 1.207,0 L 3.16,0 0,0 Z"
         style="fill:#ffffff;fill-opacity:1;fill-rule:nonzero;stroke:none"
         id="path16"
         inkscape:connector-curvature="0" /></g><g
       id="g18"
       transform="translate(68.0922,39.537)"><path
         d="m 0,0 -3.447,-10.385 -1.254,0 0,-0.366 3.096,0 0,0.366 -1.365,0 1.128,3.494 3.033,0 1.095,-3.494 -1.286,0 0,-0.366 4.002,0 0,0.366 -1.112,0 L 0.618,0 0,0 Z m -0.302,-2.144 0.032,0 1.301,-4.304 -2.73,0 1.397,4.304 z"
         style="fill:#ffffff;fill-opacity:1;fill-rule:nonzero;stroke:none"
         id="path20"
         inkscape:connector-curvature="0" /></g><g
       id="g22"
       transform="translate(80.7003,39.3948)"><path
         d="m 0,0 0,-0.365 1.302,0 -2.255,-3.734 -2.239,3.734 1.175,0 0,0.365 -4.097,0 0,-0.365 1.112,0 3.017,-5.226 -2.795,-4.652 -1.334,0 0,-0.365 3.272,0 0,0.365 -1.383,0 2.542,4.271 2.572,-4.271 -1.27,0 0,-0.365 4.112,0 0,0.365 -1.063,0 -3.319,5.685 2.525,4.193 1.271,0 L 3.145,0 0,0 Z"
         style="fill:#ffffff;fill-opacity:1;fill-rule:nonzero;stroke:none"
         id="path24"
         inkscape:connector-curvature="0" /></g><g
       id="g26"><g
         id="g28"
         clip-path="url(#clipPath30)"><g
           id="g34"
           transform="translate(29.0107,19.7319)"><path
             d="m 0,0 0.54,0 c 2.588,0 3.065,0.936 3.065,2.699 0,2.223 -1.017,2.399 -3.16,2.399 L 0,5.098 0,0 Z m -2.795,5.463 4.224,0 c 2.938,0 3.859,-1.43 3.859,-2.828 0,-1.301 -1.191,-3 -4.526,-3 l -0.762,0 0,-4.417 1.413,0 0,-0.365 -4.319,0 0,0.365 1.365,0 0,9.88 -1.254,0 0,0.365 z"
             style="fill:#ffffff;fill-opacity:1;fill-rule:nonzero;stroke:none"
             id="path36"
             inkscape:connector-curvature="0" /></g><g
           id="g38"
           transform="translate(35.1089,14.585)"><path
             d="m 0,0 0,0.365 1.302,0 0,9.88 -1.302,0 0,0.365 4.304,0 0,-0.365 -1.461,0 0,-9.88 2.842,0 c 1.302,0 1.922,1.588 2.112,2.606 l 0.302,0 L 7.924,0 0,0 Z"
             style="fill:#ffffff;fill-opacity:1;fill-rule:nonzero;stroke:none"
             id="path40"
             inkscape:connector-curvature="0" /></g><g
           id="g42"
           transform="translate(49.4648,18.8901)"><path
             d="m 0,0 -1.302,4.303 -0.032,0 L -2.731,0 0,0 Z m -5.733,-4.305 0,0.365 1.254,0 3.447,10.387 0.619,0 3.271,-10.387 1.112,0 0,-0.365 -4.002,0 0,0.365 1.286,0 -1.095,3.494 -3.034,0 -1.127,-3.494 1.366,0 0,-0.365 -3.097,0 z"
             style="fill:#ffffff;fill-opacity:1;fill-rule:nonzero;stroke:none"
             id="path44"
             inkscape:connector-curvature="0" /></g><g
           id="g46"
           transform="translate(55.8008,24.8296)"><path
             d="m 0,0 -1.239,0 0,0.365 3.097,0 4.51,-7.688 0.032,0 0,7.323 -1.239,0 0,0.365 2.938,0 0,-0.365 -1.223,0 0,-10.483 -0.413,0 -5.955,10.165 -0.032,0 0,-9.561 1.223,0 0,-0.366 -2.938,0 0,0.366 1.239,0 L 0,0 Z"
             style="fill:#ffffff;fill-opacity:1;fill-rule:nonzero;stroke:none"
             id="path48"
             inkscape:connector-curvature="0" /></g><g
           id="g50"
           transform="translate(73.0469,22.3667)"><path
             d="m 0,0 -0.365,0 c -0.334,1.51 -1.159,2.701 -2.827,2.701 -1.016,0 -1.794,-0.699 -2.112,-1.287 -0.619,-1.16 -0.651,-3.414 -0.651,-4.287 0,-2.733 0.333,-4.702 2.842,-4.702 1.541,0 2.509,1.287 2.923,2.684 l 0.38,0 0,-2.891 -0.428,0 -0.445,0.653 c -0.746,-0.637 -1.604,-0.891 -2.493,-0.891 -2.938,0 -4.59,2.557 -4.59,5.606 0,3.129 2.414,5.48 4.653,5.48 0.953,0 1.572,-0.302 2.335,-0.841 L -0.238,2.701 0,2.701 0,0 Z"
             style="fill:#ffffff;fill-opacity:1;fill-rule:nonzero;stroke:none"
             id="path52"
             inkscape:connector-curvature="0" /></g><g
           id="g54"
           transform="translate(80.7168,24.8296)"><path
             d="m 0,0 0,0.365 3.16,0 0,-0.365 -1.175,0 -3.668,-3.939 4.828,-5.94 0.746,0 0,-0.366 -4.034,0 0,0.366 1.27,0 -4.017,5.178 c -0.048,0.08 0.015,0.158 0.127,0.269 L 1.429,0 0,0 Z m -1.826,-10.245 -3.986,0 0,0.366 1.223,0 0,9.879 -1.223,0 0,0.365 3.986,0 0,-0.365 -1.223,0 0,-9.879 1.223,0 0,-0.366 z"
             style="fill:#ffffff;fill-opacity:1;fill-rule:nonzero;stroke:none"
             id="path56"
             inkscape:connector-curvature="0" /></g><g
           id="g58"
           transform="translate(4.8408,0.3857)"><path
             d="m 0,0 -4.272,0 0,0.365 1.366,0 0,9.877 -1.366,0 0,0.365 4.272,0 0,-0.365 -1.366,0 0,-9.877 L 0,0.365 0,0 Z"
             style="fill:#ffffff;fill-opacity:1;fill-rule:nonzero;stroke:none"
             id="path60"
             inkscape:connector-curvature="0" /></g><g
           id="g62"
           transform="translate(8.3027,10.6279)"><path
             d="m 0,0 -1.239,0 0,0.365 3.097,0 4.51,-7.685 0.032,0 0,7.32 -1.239,0 0,0.365 2.938,0 0,-0.365 -1.223,0 0,-10.48 -0.413,0 -5.955,10.164 -0.032,0 0,-9.561 1.223,0 0,-0.365 -2.938,0 0,0.365 1.239,0 L 0,0 Z"
             style="fill:#ffffff;fill-opacity:1;fill-rule:nonzero;stroke:none"
             id="path64"
             inkscape:connector-curvature="0" /></g><g
           id="g66"
           transform="translate(19.0059,0.3369)"><path
             d="m 0,0 -0.223,0 0,2.732 0.302,0 C 0.508,1.287 1.604,0.176 3.144,0.176 4.51,0.176 5.812,1.08 5.812,2.479 5.812,3.414 5.59,3.844 4.367,4.336 3.779,4.559 1.318,5.369 1.08,5.527 0.159,6.1 -0.207,7.068 -0.207,7.957 c 0,0.65 0.191,1.207 0.651,1.811 0.477,0.619 1.255,1.127 2.462,1.127 0.731,0 1.763,-0.461 2.08,-0.7 l 0.604,0.461 0.222,0 0,-2.476 -0.317,0 c -0.35,1.318 -1.287,2.349 -2.7,2.349 -1.08,0 -2.255,-0.746 -2.255,-1.937 0,-2.637 6.019,-0.938 6.019,-5.256 0,-2.176 -1.366,-3.525 -3.447,-3.525 -0.889,0 -1.778,0.238 -2.429,0.888 L 0,0 Z"
             style="fill:#ffffff;fill-opacity:1;fill-rule:nonzero;stroke:none"
             id="path68"
             inkscape:connector-curvature="0" /></g><g
           id="g70"
           transform="translate(29.5342,0.3857)"><path
             d="m 0,0 0,0.365 1.318,0 0,9.877 -1.08,0 c -1.508,0 -1.667,-1.127 -1.969,-2.699 l -0.413,0 0.175,3.064 8.178,0 0.112,-3.064 -0.413,0 c -0.175,1.508 -0.699,2.699 -2.35,2.699 l -0.699,0 0,-9.877 1.318,0 L 4.177,0 0,0 Z"
             style="fill:#ffffff;fill-opacity:1;fill-rule:nonzero;stroke:none"
             id="path72"
             inkscape:connector-curvature="0" /></g><g
           id="g74"
           transform="translate(41.937,0.3857)"><path
             d="m 0,0 -4.272,0 0,0.365 1.366,0 0,9.877 -1.366,0 0,0.365 4.272,0 0,-0.365 -1.366,0 0,-9.877 L 0,0.365 0,0 Z"
             style="fill:#ffffff;fill-opacity:1;fill-rule:nonzero;stroke:none"
             id="path76"
             inkscape:connector-curvature="0" /></g><g
           id="g78"
           transform="translate(45.875,0.3857)"><path
             d="m 0,0 0,0.365 1.318,0 0,9.877 -1.08,0 c -1.508,0 -1.667,-1.127 -1.969,-2.699 l -0.413,0 0.175,3.064 8.178,0 0.112,-3.064 -0.413,0 c -0.175,1.508 -0.699,2.699 -2.35,2.699 l -0.699,0 0,-9.877 1.318,0 L 4.177,0 0,0 Z"
             style="fill:#ffffff;fill-opacity:1;fill-rule:nonzero;stroke:none"
             id="path80"
             inkscape:connector-curvature="0" /></g><g
           id="g82"
           transform="translate(58.0869,10.9932)"><path
             d="m 0,0 0,-0.365 -1.239,0 0,-7.877 c 0,-0.365 0.286,-2.08 2.208,-2.08 2.382,0 2.684,1.636 2.684,3.652 l 0,6.305 -1.223,0 0,0.365 2.874,0 0,-0.365 -1.222,0 0,-6.797 c 0,-2.492 -1.096,-3.684 -3.494,-3.684 -2.049,0 -3.367,1.127 -3.367,2.907 l 0,7.574 -1.223,0 0,0.365 L 0,0 Z"
             style="fill:#ffffff;fill-opacity:1;fill-rule:nonzero;stroke:none"
             id="path84"
             inkscape:connector-curvature="0" /></g><g
           id="g86"
           transform="translate(67.5195,0.3857)"><path
             d="m 0,0 0,0.365 1.318,0 0,9.877 -1.08,0 c -1.508,0 -1.667,-1.127 -1.969,-2.699 l -0.413,0 0.175,3.064 8.178,0 0.112,-3.064 -0.413,0 c -0.175,1.508 -0.699,2.699 -2.35,2.699 l -0.699,0 0,-9.877 1.318,0 L 4.177,0 0,0 Z"
             style="fill:#ffffff;fill-opacity:1;fill-rule:nonzero;stroke:none"
             id="path88"
             inkscape:connector-curvature="0" /></g><g
           id="g90"
           transform="translate(75.6191,0.3857)"><path
             d="m 0,0 0,0.365 1.397,0 0,9.877 -1.397,0 0,0.365 8.051,0 0,-2.587 -0.349,0 c -0.27,1.888 -1.255,2.222 -2.7,2.222 l -2.064,0 0,-4.574 c 1.604,0 2.112,0.018 2.334,1.699 l 0.35,0 0,-4.017 -0.35,0 C 5.177,5.049 4.51,5.256 2.938,5.271 l 0,-4.906 1.921,0 c 2.097,0 2.795,0.254 3.208,2.604 l 0.413,0 L 8.273,0 0,0 Z"
             style="fill:#ffffff;fill-opacity:1;fill-rule:nonzero;stroke:none"
             id="path92"
             inkscape:connector-curvature="0" /></g><g
           id="g94"
           transform="translate(88.3208,39.4141)"><path
             d="M 0,0 0,-38.999"
             style="fill:none;stroke:#ffffff;stroke-width:0.5;stroke-linecap:butt;stroke-linejoin:miter;stroke-miterlimit:3.86400008;stroke-dasharray:none;stroke-opacity:1"
             id="path96"
             inkscape:connector-curvature="0" /></g><g
           id="g98"
           transform="translate(92.2212,39.3857)"><path
             d="m 0,0 2.391,0 0,-0.423 -1.889,0 0,-2.116 1.755,0 0,-0.423 -1.755,0 0,-2.696 L 0,-5.658 0,0 Z"
             style="fill:#ffffff;fill-opacity:1;fill-rule:nonzero;stroke:none"
             id="path100"
             inkscape:connector-curvature="0" /></g><g
           id="g102"
           transform="translate(96.9146,34.0405)"><path
             d="M 0,0 C 1.191,0 1.207,1.012 1.207,2.516 1.207,4.021 1.191,5.032 0,5.032 -1.191,5.032 -1.207,4.021 -1.207,2.516 -1.207,1.012 -1.191,0 0,0 m 0,5.455 c 1.693,0 1.709,-1.411 1.709,-2.939 0,-1.528 -0.016,-2.938 -1.709,-2.938 -1.692,0 -1.708,1.41 -1.708,2.938 0,1.528 0.016,2.939 1.708,2.939"
             style="fill:#ffffff;fill-opacity:1;fill-rule:nonzero;stroke:none"
             id="path104"
             inkscape:connector-curvature="0" /></g><g
           id="g106"
           transform="translate(100.1284,36.8936)"><path
             d="M 0,0 0.815,0 C 1.567,0 1.92,0.196 1.92,1.145 1.92,1.92 1.614,2.069 1.026,2.069 L 0,2.069 0,0 Z m 0,-0.423 0,-2.743 -0.502,0 0,5.658 1.56,0 c 1.089,0 1.363,-0.36 1.363,-1.355 0,-0.706 -0.117,-1.176 -0.877,-1.349 l 0,-0.016 c 0.791,-0.164 0.838,-0.257 0.838,-2.279 0,-0.221 0.039,-0.44 0.055,-0.659 l -0.478,0 c -0.047,0.165 -0.07,1.106 -0.078,1.411 -0.009,0.242 0.156,1.332 -0.933,1.332 l -0.948,0 z"
             style="fill:#ffffff;fill-opacity:1;fill-rule:nonzero;stroke:none"
             id="path108"
             inkscape:connector-curvature="0" /></g><g
           id="g110"
           transform="translate(92.1919,0.4229)"><path
             d="m 0,0 0,5.49 0.486,0 0,-5.08 1.818,0 L 2.304,0 0,0 Z"
             style="fill:#ffffff;fill-opacity:1;fill-rule:nonzero;stroke:none"
             id="path112"
             inkscape:connector-curvature="0" /></g><g
           id="g114"
           transform="translate(97.8794,5.9131)"><path
             d="m 0,0 0,-0.412 -2,0 0,-2.053 1.908,0 0,-0.41 -1.908,0 0,-2.205 2.053,0 0,-0.41 -2.539,0 0,5.49 L 0,0 Z"
             style="fill:#ffffff;fill-opacity:1;fill-rule:nonzero;stroke:none"
             id="path116"
             inkscape:connector-curvature="0" /></g><path
           d="m 99.468,0.423 -0.487,0 0,5.49 0.487,0 0,-5.49 z"
           style="fill:#ffffff;fill-opacity:1;fill-rule:nonzero;stroke:none"
           id="path118"
           inkscape:connector-curvature="0" /><g
           id="g120"
           transform="translate(101.2251,3.3877)"><path
             d="M 0,0 0.904,0 C 1.414,0 1.74,0.244 1.74,1.104 1.74,2.037 1.338,2.113 0.896,2.113 L 0,2.113 0,0 Z m -0.486,2.525 1.505,0 c 0.456,0 1.209,-0.062 1.209,-1.332 0,-1.101 -0.358,-1.603 -1.3,-1.603 l -0.928,0 0,-2.555 -0.486,0 0,5.49 z"
             style="fill:#ffffff;fill-opacity:1;fill-rule:nonzero;stroke:none"
             id="path122"
             inkscape:connector-curvature="0" /></g><g
           id="g124"
           transform="translate(106.9805,5.9131)"><path
             d="m 0,0 0,-0.541 -2.486,-4.539 2.509,0 0,-0.41 -3.011,0 0,0.539 2.509,4.539 -2.357,0 0,0.412 L 0,0 Z"
             style="fill:#ffffff;fill-opacity:1;fill-rule:nonzero;stroke:none"
             id="path126"
             inkscape:connector-curvature="0" /></g><path
           d="m 108.455,0.423 -0.486,0 0,5.49 0.486,0 0,-5.49 z"
           style="fill:#ffffff;fill-opacity:1;fill-rule:nonzero;stroke:none"
           id="path128"
           inkscape:connector-curvature="0" /><g
           id="g130"
           transform="translate(112.3789,2.8779)"><path
             d="m 0,0 -1.109,0 0,0.41 1.595,0 0,-2.744 C 0,-2.486 -0.51,-2.563 -1.027,-2.563 c -1.786,0 -1.657,1.788 -1.657,2.852 0,1.065 -0.129,2.852 1.657,2.852 1.05,0 1.589,-0.45 1.566,-1.514 l -0.486,0 c 0,0.723 -0.311,1.103 -1.08,1.103 -1.186,0 -1.17,-1.056 -1.17,-2.441 0,-1.383 -0.016,-2.441 1.17,-2.441 0.42,0 0.769,0.062 1.027,0.16 L 0,0 Z"
             style="fill:#ffffff;fill-opacity:1;fill-rule:nonzero;stroke:none"
             id="path132"
             inkscape:connector-curvature="0" /></g><g
           id="g134"
           transform="translate(94.9087,27.4233)"><path
             d="m 0,0 0,2.375 1.24,0 0,-5.932 -1.24,0 0,2.647 -1.422,0 0,-2.647 -1.24,0 0,5.932 1.24,0 L -1.422,0 0,0 Z"
             style="fill:#ffffff;fill-opacity:1;fill-rule:nonzero;stroke:none"
             id="path136"
             inkscape:connector-curvature="0" /></g><g
           id="g138"
           transform="translate(101.2339,29.7983)"><path
             d="m 0,0 0,-4.205 c 0,-0.889 -0.501,-1.824 -2.013,-1.824 -1.363,0 -2.021,0.705 -2.021,1.824 l 0,4.205 1.241,0 0,-4.123 c 0,-0.732 0.312,-1.02 0.765,-1.02 0.541,0 0.788,0.362 0.788,1.02 L -1.24,0 0,0 Z"
             style="fill:#ffffff;fill-opacity:1;fill-rule:nonzero;stroke:none"
             id="path140"
             inkscape:connector-curvature="0" /></g><g
           id="g142"
           transform="translate(102.2192,23.8667)"><path
             d="m 0,0 0,5.932 1.996,0 0.929,-4.034 0.016,0 0.986,4.034 1.93,0 0,-5.932 -1.207,0 0,4.576 -0.018,0 L 3.492,0 2.308,0 1.225,4.576 1.208,4.576 1.208,0 0,0 Z"
             style="fill:#ffffff;fill-opacity:1;fill-rule:nonzero;stroke:none"
             id="path144"
             inkscape:connector-curvature="0" /></g><g
           id="g146"
           transform="translate(111.0254,28.6558)"><path
             d="m 0,0 -0.016,0 -0.566,-2.563 1.182,0 L 0,0 Z m -2.391,-4.789 1.643,5.932 1.635,0 1.611,-5.932 -1.307,0 -0.328,1.314 -1.693,0 -0.336,-1.314 -1.225,0 z"
             style="fill:#ffffff;fill-opacity:1;fill-rule:nonzero;stroke:none"
             id="path148"
             inkscape:connector-curvature="0" /></g><g
           id="g150"
           transform="translate(114.1152,23.8667)"><path
             d="m 0,0 0,5.932 1.676,0 1.576,-4.108 0.018,0 0,4.108 1.158,0 L 4.428,0 2.793,0 1.174,4.338 1.158,4.338 1.158,0 0,0 Z"
             style="fill:#ffffff;fill-opacity:1;fill-rule:nonzero;stroke:none"
             id="path152"
             inkscape:connector-curvature="0" /></g><g
           id="g154"
           transform="translate(92.1479,17.6182)"><path
             d="m 0,0 c 0,1.569 0,3.063 2.046,3.063 1.265,0 1.773,-0.697 1.725,-1.971 l -1.216,0 c 0,0.789 -0.14,1.084 -0.509,1.084 C 1.347,2.176 1.257,1.52 1.257,0 c 0,-1.52 0.09,-2.178 0.789,-2.178 0.574,0 0.551,0.741 0.566,1.207 l 1.225,0 C 3.837,-2.555 3.204,-3.064 2.046,-3.064 0,-3.064 0,-1.553 0,0"
             style="fill:#ffffff;fill-opacity:1;fill-rule:nonzero;stroke:none"
             id="path156"
             inkscape:connector-curvature="0" /></g><g
           id="g158"
           transform="translate(99.5493,17.6182)"><path
             d="M 0,0 C 0,1.52 -0.09,2.176 -0.789,2.176 -1.486,2.176 -1.577,1.52 -1.577,0 c 0,-1.52 0.091,-2.178 0.788,-2.178 C -0.09,-2.178 0,-1.52 0,0 m -2.834,0 c 0,1.569 0,3.063 2.045,3.063 2.047,0 2.047,-1.494 2.047,-3.063 0,-1.553 0,-3.064 -2.047,-3.064 -2.045,0 -2.045,1.511 -2.045,3.064"
             style="fill:#ffffff;fill-opacity:1;fill-rule:nonzero;stroke:none"
             id="path160"
             inkscape:connector-curvature="0" /></g><g
           id="g162"
           transform="translate(104.5039,18.7593)"><path
             d="m 0,0 c 0.008,0.551 -0.082,1.035 -0.74,1.035 -0.772,0 -0.772,-1.043 -0.772,-2.194 0,-1.855 0.18,-2.185 0.887,-2.185 0.205,0 0.428,0.051 0.615,0.115 l 0,1.314 -0.672,0 0,0.913 1.914,0 0,-3.006 c -0.337,-0.067 -1.183,-0.198 -1.677,-0.198 -2.086,0 -2.324,0.862 -2.324,3.114 0,1.494 0.074,3.014 2.103,3.014 C 0.549,1.922 1.305,1.24 1.232,0 L 0,0 Z"
             style="fill:#ffffff;fill-opacity:1;fill-rule:nonzero;stroke:none"
             id="path164"
             inkscape:connector-curvature="0" /></g><g
           id="g166"
           transform="translate(106.8203,14.6514)"><path
             d="m 0,0 0,5.932 1.676,0 1.576,-4.108 0.018,0 0,4.108 1.158,0 L 4.428,0 2.793,0 1.174,4.338 1.158,4.338 1.158,0 0,0 Z"
             style="fill:#ffffff;fill-opacity:1;fill-rule:nonzero;stroke:none"
             id="path168"
             inkscape:connector-curvature="0" /></g><path
           d="m 112.291,20.583 1.24,0 0,-5.932 -1.24,0 0,5.932 z"
           style="fill:#ffffff;fill-opacity:1;fill-rule:nonzero;stroke:none"
           id="path170"
           inkscape:connector-curvature="0" /><g
           id="g172"
           transform="translate(118.1074,20.5835)"><path
             d="m 0,0 0,-0.986 -1.381,0 0,-4.946 -1.24,0 0,4.946 -1.381,0 0,0.986 L 0,0 Z"
             style="fill:#ffffff;fill-opacity:1;fill-rule:nonzero;stroke:none"
             id="path174"
             inkscape:connector-curvature="0" /></g><path
           d="m 118.682,20.583 1.24,0 0,-5.932 -1.24,0 0,5.932 z"
           style="fill:#ffffff;fill-opacity:1;fill-rule:nonzero;stroke:none"
           id="path176"
           inkscape:connector-curvature="0" /><g
           id="g178"
           transform="translate(120.4902,20.5835)"><path
             d="m 0,0 1.289,0 0.92,-4.313 0.016,0 L 3.26,0 4.484,0 2.916,-5.932 1.461,-5.932 0,0 Z"
             style="fill:#ffffff;fill-opacity:1;fill-rule:nonzero;stroke:none"
             id="path180"
             inkscape:connector-curvature="0" /></g><g
           id="g182"
           transform="translate(125.5332,14.6514)"><path
             d="m 0,0 0,5.932 3.236,0 0,-0.912 -1.996,0 0,-1.463 1.84,0 0,-0.911 -1.84,0 0,-1.734 2.063,0 L 3.303,0 0,0 Z"
             style="fill:#ffffff;fill-opacity:1;fill-rule:nonzero;stroke:none"
             id="path184"
             inkscape:connector-curvature="0" /></g><g
           id="g186"
           transform="translate(133.4023,19.4409)"><path
             d="m 0,0 -0.016,0 -0.566,-2.563 1.184,0 L 0,0 Z m -2.389,-4.79 1.643,5.933 1.635,0 1.609,-5.933 -1.307,0 -0.328,1.315 -1.691,0 -0.338,-1.315 -1.223,0 z"
             style="fill:#ffffff;fill-opacity:1;fill-rule:nonzero;stroke:none"
             id="path188"
             inkscape:connector-curvature="0" /></g><g
           id="g190"
           transform="translate(136.4922,14.6514)"><path
             d="m 0,0 0,5.932 1.676,0 1.578,-4.108 0.016,0 0,4.108 1.158,0 L 4.428,0 2.793,0 1.176,4.338 1.158,4.338 1.158,0 0,0 Z"
             style="fill:#ffffff;fill-opacity:1;fill-rule:nonzero;stroke:none"
             id="path192"
             inkscape:connector-curvature="0" /></g><g
           id="g194"
           transform="translate(143.2285,15.5635)"><path
             d="m 0,0 0.6,0 c 0.755,0 0.904,0.566 0.904,2.055 0,1.092 0,2.053 -0.863,2.053 L 0,4.108 0,0 Z m -1.24,5.02 2.07,0 c 1.625,0 1.93,-1.084 1.93,-2.934 0,-0.91 0.14,-2.998 -1.981,-2.998 l -2.019,0 0,5.932 z"
             style="fill:#ffffff;fill-opacity:1;fill-rule:nonzero;stroke:none"
             id="path196"
             inkscape:connector-curvature="0" /></g><g
           id="g198"
           transform="translate(150.0625,15.5635)"><path
             d="m 0,0 0.691,0 c 0.262,0 0.854,0.008 0.854,0.838 0,0.525 -0.197,0.846 -0.82,0.846 L 0,1.684 0,0 Z m 0,2.596 0.83,0 c 0.272,0 0.649,0.181 0.649,0.756 0,0.436 -0.295,0.756 -0.713,0.756 L 0,4.108 0,2.596 Z m -1.24,-3.508 0,5.932 2.201,0 C 1.906,5.02 2.688,4.749 2.688,3.483 2.688,2.801 2.35,2.309 1.676,2.178 l 0,-0.018 C 2.555,2.037 2.785,1.471 2.785,0.658 c 0,-1.504 -1.306,-1.57 -1.832,-1.57 l -2.193,0 z"
             style="fill:#ffffff;fill-opacity:1;fill-rule:nonzero;stroke:none"
             id="path200"
             inkscape:connector-curvature="0" /></g><g
           id="g202"
           transform="translate(155.041,18.0205)"><path
             d="m 0,0 0.551,0 c 0.492,0 0.633,0.492 0.633,0.872 0,0.566 -0.239,0.779 -0.633,0.779 L 0,1.651 0,0 Z m 0,-3.369 -1.24,0 0,5.932 2.291,0 c 0.847,0 1.388,-0.543 1.388,-1.553 0,-0.756 -0.294,-1.322 -1.099,-1.453 l 0,-0.018 c 0.269,-0.033 1.076,-0.098 1.076,-1.166 0,-0.379 0.023,-1.496 0.139,-1.742 l -1.215,0 c -0.164,0.361 -0.133,0.764 -0.133,1.15 0,0.707 0.066,1.307 -0.887,1.307 l -0.32,0 0,-2.457 z"
             style="fill:#ffffff;fill-opacity:1;fill-rule:nonzero;stroke:none"
             id="path204"
             inkscape:connector-curvature="0" /></g><g
           id="g206"
           transform="translate(160.332,19.4409)"><path
             d="m 0,0 -0.018,0 -0.566,-2.563 1.184,0 L 0,0 Z m -2.391,-4.79 1.643,5.933 1.635,0 1.609,-5.933 -1.305,0 -0.33,1.315 -1.691,0 -0.338,-1.315 -1.223,0 z"
             style="fill:#ffffff;fill-opacity:1;fill-rule:nonzero;stroke:none"
             id="path208"
             inkscape:connector-curvature="0" /></g><path
           d="m 163.412,20.583 1.24,0 0,-5.932 -1.24,0 0,5.932 z"
           style="fill:#ffffff;fill-opacity:1;fill-rule:nonzero;stroke:none"
           id="path210"
           inkscape:connector-curvature="0" /><g
           id="g212"
           transform="translate(165.7051,14.6514)"><path
             d="m 0,0 0,5.932 1.676,0 1.576,-4.108 0.018,0 0,4.108 1.158,0 L 4.428,0 2.793,0 1.174,4.338 1.158,4.338 1.158,0 0,0 Z"
             style="fill:#ffffff;fill-opacity:1;fill-rule:nonzero;stroke:none"
             id="path214"
             inkscape:connector-curvature="0" /></g><g
           id="g216"
           transform="translate(174.6094,14.5537)"><path
             d="m 0,0 c -1.537,0 -1.824,0.902 -1.758,1.93 l 1.24,0 c 0,-0.567 0.026,-1.043 0.707,-1.043 0.418,0 0.623,0.271 0.623,0.674 0,1.068 -2.496,1.132 -2.496,2.9 0,0.928 0.444,1.666 1.955,1.666 1.208,0 1.807,-0.541 1.725,-1.781 l -1.207,0 C 0.789,4.79 0.715,5.241 0.213,5.241 -0.189,5.241 -0.428,5.02 -0.428,4.608 -0.428,3.482 2.07,3.582 2.07,1.717 2.07,0.18 0.945,0 0,0"
             style="fill:#ffffff;fill-opacity:1;fill-rule:nonzero;stroke:none"
             id="path218"
             inkscape:connector-curvature="0" /></g><g
           id="g220"
           transform="translate(177.5098,17.6182)"><path
             d="m 0,0 c 0,1.569 0,3.063 2.045,3.063 1.266,0 1.773,-0.697 1.725,-1.971 l -1.215,0 c 0,0.789 -0.141,1.084 -0.51,1.084 C 1.346,2.176 1.256,1.52 1.256,0 c 0,-1.52 0.09,-2.178 0.789,-2.178 0.574,0 0.551,0.741 0.566,1.207 l 1.225,0 C 3.836,-2.555 3.203,-3.064 2.045,-3.064 0,-3.064 0,-1.553 0,0"
             style="fill:#ffffff;fill-opacity:1;fill-rule:nonzero;stroke:none"
             id="path222"
             inkscape:connector-curvature="0" /></g><path
           d="m 182.135,20.583 1.24,0 0,-5.932 -1.24,0 0,5.932 z"
           style="fill:#ffffff;fill-opacity:1;fill-rule:nonzero;stroke:none"
           id="path224"
           inkscape:connector-curvature="0" /><g
           id="g226"
           transform="translate(184.418,14.6514)"><path
             d="m 0,0 0,5.932 3.236,0 0,-0.912 -1.996,0 0,-1.463 1.84,0 0,-0.911 -1.84,0 0,-1.734 2.063,0 L 3.303,0 0,0 Z"
             style="fill:#ffffff;fill-opacity:1;fill-rule:nonzero;stroke:none"
             id="path228"
             inkscape:connector-curvature="0" /></g><g
           id="g230"
           transform="translate(188.5332,14.6514)"><path
             d="m 0,0 0,5.932 1.676,0 1.578,-4.108 0.016,0 0,4.108 1.158,0 L 4.428,0 2.793,0 1.176,4.338 1.158,4.338 1.158,0 0,0 Z"
             style="fill:#ffffff;fill-opacity:1;fill-rule:nonzero;stroke:none"
             id="path232"
             inkscape:connector-curvature="0" /></g><g
           id="g234"
           transform="translate(193.9473,17.6182)"><path
             d="m 0,0 c 0,1.569 0,3.063 2.045,3.063 1.266,0 1.775,-0.697 1.725,-1.971 l -1.215,0 c 0,0.789 -0.141,1.084 -0.51,1.084 C 1.348,2.176 1.256,1.52 1.256,0 c 0,-1.52 0.092,-2.178 0.789,-2.178 0.576,0 0.551,0.741 0.566,1.207 l 1.225,0 C 3.836,-2.555 3.203,-3.064 2.045,-3.064 0,-3.064 0,-1.553 0,0"
             style="fill:#ffffff;fill-opacity:1;fill-rule:nonzero;stroke:none"
             id="path236"
             inkscape:connector-curvature="0" /></g><g
           id="g238"
           transform="translate(198.5723,14.6514)"><path
             d="m 0,0 0,5.932 3.236,0 0,-0.912 -1.996,0 0,-1.463 1.84,0 0,-0.911 -1.84,0 0,-1.734 2.063,0 L 3.303,0 0,0 Z"
             style="fill:#ffffff;fill-opacity:1;fill-rule:nonzero;stroke:none"
             id="path240"
             inkscape:connector-curvature="0" /></g><g
           id="g242"
           transform="translate(204.2891,14.5537)"><path
             d="m 0,0 c -1.535,0 -1.822,0.902 -1.758,1.93 l 1.242,0 c 0,-0.567 0.024,-1.043 0.705,-1.043 0.42,0 0.625,0.271 0.625,0.674 0,1.068 -2.498,1.132 -2.498,2.9 0,0.928 0.444,1.666 1.955,1.666 1.209,0 1.809,-0.541 1.727,-1.781 l -1.209,0 C 0.789,4.79 0.715,5.241 0.215,5.241 -0.187,5.241 -0.426,5.02 -0.426,4.608 -0.426,3.482 2.07,3.582 2.07,1.717 2.07,0.18 0.945,0 0,0"
             style="fill:#ffffff;fill-opacity:1;fill-rule:nonzero;stroke:none"
             id="path244"
             inkscape:connector-curvature="0" /></g></g></g></g></svg>